<svg xmlns="http://www.w3.org/2000/svg" xmlns:xlink="http://www.w3.org/1999/xlink" viewBox="0 0 423.17 423.17"><defs><style>.cls-1{fill:url(#linear-gradient);}.cls-2{fill:#fff;}</style><linearGradient id="linear-gradient" x1="15.67" y1="407.5" x2="405.46" y2="17.72" gradientUnits="userSpaceOnUse"><stop offset="0" stop-color="#bddeeb"/><stop offset="0.5" stop-color="#bcb7d5"/><stop offset="1" stop-color="#f0c9d7"/></linearGradient></defs><title>ico</title><g id="Layer_2" data-name="Layer 2"><g id="Layer_1-2" data-name="Layer 1"><rect class="cls-1" width="423.17" height="423.17" rx="53.34" ry="53.34"/><path class="cls-2" d="M355.87,151.88c-3.57-14.36-9.28-27.9-15.55-41.29A500.38,500.38,0,0,0,312,58.66c-6-9.59-16.75-11.9-26.25-5.95Q267.82,64,249.68,75c-8.61,5.23-12,15-7.27,23.83,5.09,9.37,11.09,18.24,16.53,27.43,5.19,8.77,16,11.51,24,7.07,1.09-.61,1.79-.63,2.39.75,2.52,5.66,5.45,11.17,7.69,16.94a134.66,134.66,0,0,1,8.29,65.54c-2.49,21.16-9.21,40.76-21.4,58.35-9.72,14-22,25.14-37.58,32.32a71.87,71.87,0,0,1-30.84,6.74,75.16,75.16,0,0,1-38.12-10.7c-13.4-7.87-23.87-18.66-32.23-31.56-11.47-17.72-17.64-37.35-19.6-58.26A135.32,135.32,0,0,1,133,144.26c1.75-3.9,3.73-7.69,5.62-11.58.7.26,1.11.37,1.49.56,8.82,4.37,18.26,1.92,23.52-6.33,5.56-8.72,11-17.5,16.33-26.38,5.55-9.32,2.59-20.1-6.49-25.56q-18-10.87-35.87-22.1c-8.83-5.56-19.95-4.23-25.12,3.85q-9.18,14.37-17.37,29.35c-4.83,8.84-9,18.05-13.43,27.09A192.86,192.86,0,0,0,64,167.31a197.93,197.93,0,0,0-1.65,54.41,195.26,195.26,0,0,0,10.51,45.74,178.35,178.35,0,0,0,24.38,45.39,161.78,161.78,0,0,0,24.53,26.5,145.17,145.17,0,0,0,29.11,19.59,128.89,128.89,0,0,0,35.31,12.18c5.5,1,11,1.74,16.56,2.6H220.4c.83-.17,1.66-.36,2.49-.52,9.3-1.8,18.82-2.85,27.84-5.56,20.88-6.26,39.1-17.43,55.07-32.26a167.66,167.66,0,0,0,29.85-37.15,182.54,182.54,0,0,0,18.2-41.57,196.25,196.25,0,0,0,7.75-44.48A198.79,198.79,0,0,0,355.87,151.88ZM233.41,343.6c0-.15,0-.3,0-.46a2.28,2.28,0,0,0,0,.26C233.42,343.47,233.41,343.53,233.41,343.6Z"/></g></g></svg>