<svg xmlns="http://www.w3.org/2000/svg" viewBox="0 0 549.46 549.46"><defs><style>.cls-1{opacity:0.5;}.cls-2{fill:#fff;}</style></defs><title>dreamteam-solid</title><g id="Layer_2" data-name="Layer 2"><g id="Layer_1-2" data-name="Layer 1"><g class="cls-1"><path class="cls-2" d="M474.54,549.46H74.92A75,75,0,0,1,0,474.54V74.92A75,75,0,0,1,74.92,0H474.54a75,75,0,0,1,74.92,74.92V474.54A75,75,0,0,1,474.54,549.46ZM74.92,15.15A59.85,59.85,0,0,0,15.15,74.92V474.54a59.85,59.85,0,0,0,59.77,59.77H474.54a59.85,59.85,0,0,0,59.77-59.77V74.92a59.85,59.85,0,0,0-59.77-59.77Z"/></g><path class="cls-2" d="M419,215c-3.57-14.36-9.28-27.89-15.55-41.28a499.44,499.44,0,0,0-28.31-51.93c-6-9.59-16.75-11.9-26.24-6q-18,11.25-36.09,22.23c-8.62,5.24-12.05,15-7.28,23.84,5.09,9.37,11.1,18.24,16.53,27.43,5.19,8.76,16,11.5,24,7.06,1.09-.6,1.78-.62,2.39.75,2.51,5.67,5.44,11.17,7.68,16.94a134.79,134.79,0,0,1,8.3,65.54c-2.49,21.16-9.21,40.76-21.4,58.36-9.73,14-22,25.13-37.59,32.32a71.83,71.83,0,0,1-30.84,6.74,75.32,75.32,0,0,1-38.12-10.71c-13.39-7.87-23.87-18.66-32.22-31.56-11.48-17.72-17.65-37.34-19.6-58.25a135.34,135.34,0,0,1,11.46-69.15c1.75-3.89,3.72-7.69,5.62-11.58.69.26,1.1.37,1.48.56,8.82,4.37,18.26,1.93,23.52-6.33,5.56-8.72,11-17.5,16.33-26.38,5.55-9.32,2.59-20.09-6.49-25.56q-18-10.86-35.87-22.09c-8.82-5.56-19.94-4.24-25.12,3.85q-9.18,14.35-17.36,29.35c-4.83,8.84-9,18.05-13.44,27.09a192.67,192.67,0,0,0-17.61,54.14,197.94,197.94,0,0,0-1.66,54.41A195.16,195.16,0,0,0,136,330.6,178.15,178.15,0,0,0,160.41,376a161.85,161.85,0,0,0,24.53,26.51,145.41,145.41,0,0,0,29.11,19.58,128.91,128.91,0,0,0,35.31,12.19c5.5,1,11.05,1.74,16.57,2.59h17.61c.83-.17,1.66-.35,2.5-.51,9.29-1.81,18.81-2.85,27.84-5.56,20.88-6.27,39.09-17.44,55.07-32.27a167.33,167.33,0,0,0,29.84-37.14A182.29,182.29,0,0,0,417,319.81a196.44,196.44,0,0,0,7.75-44.49A199.1,199.1,0,0,0,419,215ZM296.56,406.75c0-.16,0-.31,0-.46a2,2,0,0,1,0,.25Z"/></g></g></svg>